<?xml version="1.0" encoding="UTF-8"?>
<svg xmlns="http://www.w3.org/2000/svg" xmlns:xlink="http://www.w3.org/1999/xlink" width="25pt" height="25pt" viewBox="0 0 25 25" version="1.1">
<g id="surface1">
<path style=" stroke:none;fill-rule:nonzero;fill:rgb(0%,0%,0%);fill-opacity:1;" d="M 12.5 0 C 5.605469 0 0 5.605469 0 12.5 C 0 19.394531 5.605469 25 12.5 25 C 19.394531 25 25 19.394531 25 12.5 C 25 5.605469 19.394531 0 12.5 0 Z M 16.363281 13.238281 L 11.152344 18.445312 C 10.949219 18.648438 10.683594 18.75 10.417969 18.75 C 10.148438 18.75 9.882812 18.648438 9.679688 18.445312 C 9.273438 18.039062 9.273438 17.378906 9.679688 16.972656 L 14.152344 12.5 L 9.679688 8.027344 C 9.273438 7.621094 9.273438 6.960938 9.679688 6.554688 C 10.085938 6.148438 10.746094 6.148438 11.152344 6.554688 L 16.363281 11.761719 C 16.769531 12.171875 16.769531 12.828125 16.363281 13.238281 Z M 16.363281 13.238281 "/>
</g>
</svg>
