<?xml version="1.0" encoding="UTF-8"?>
<svg xmlns="http://www.w3.org/2000/svg" xmlns:xlink="http://www.w3.org/1999/xlink" width="25pt" height="25pt" viewBox="0 0 25 25" version="1.1">
<g id="surface1">
<path style=" stroke:none;fill-rule:nonzero;fill:rgb(0%,0%,0%);fill-opacity:1;" d="M 12.5 0 C 5.605469 0 0 5.605469 0 12.5 C 0 19.394531 5.605469 25 12.5 25 C 19.394531 25 25 19.394531 25 12.5 C 25 5.605469 19.394531 0 12.5 0 Z M 15.320312 16.972656 C 15.726562 17.378906 15.726562 18.039062 15.320312 18.445312 C 15.117188 18.648438 14.851562 18.75 14.582031 18.75 C 14.316406 18.75 14.050781 18.648438 13.847656 18.445312 L 8.636719 13.238281 C 8.230469 12.828125 8.230469 12.171875 8.636719 11.761719 L 13.847656 6.554688 C 14.253906 6.148438 14.914062 6.148438 15.320312 6.554688 C 15.726562 6.960938 15.726562 7.621094 15.320312 8.027344 L 10.847656 12.5 Z M 15.320312 16.972656 "/>
</g>
</svg>
