<svg><defs><svg id="Cargo" filename="Cargo.svg" width="91" height="29"><path d="M11.54 22.3c-2.12 0-4.04-.46-5.76-1.38-1.7-.94-3.04-2.23-4.02-3.87C.8 15.41.32 13.56.32 11.5c0-2.06.49-3.91 1.47-5.55a10.31 10.31 0 014.02-3.84C7.53 1.17 9.45.7 11.57.7c1.72 0 3.29.3 4.71.9 1.42.6 2.62 1.47 3.6 2.61l-2.52 2.37c-1.52-1.64-3.39-2.46-5.61-2.46-1.44 0-2.73.32-3.87.96a6.705 6.705 0 00-2.67 2.61c-.64 1.12-.96 2.39-.96 3.81s.32 2.69.96 3.81c.64 1.12 1.53 2 2.67 2.64 1.14.62 2.43.93 3.87.93 2.22 0 4.09-.83 5.61-2.49l2.52 2.4c-.98 1.14-2.19 2.01-3.63 2.61-1.42.6-2.99.9-4.71.9zM29.23 5.8c2.36 0 4.16.57 5.4 1.71 1.26 1.12 1.89 2.82 1.89 5.1V22h-3.54v-1.95c-.46.7-1.12 1.24-1.98 1.62-.84.36-1.86.54-3.06.54s-2.25-.2-3.15-.6c-.9-.42-1.6-.99-2.1-1.71-.48-.74-.72-1.57-.72-2.49 0-1.44.53-2.59 1.59-3.45 1.08-.88 2.77-1.32 5.07-1.32h4.14v-.24c0-1.12-.34-1.98-1.02-2.58-.66-.6-1.65-.9-2.97-.9-.9 0-1.79.14-2.67.42-.86.28-1.59.67-2.19 1.17l-1.47-2.73c.84-.64 1.85-1.13 3.03-1.47 1.18-.34 2.43-.51 3.75-.51zm-.51 13.68c.94 0 1.77-.21 2.49-.63.74-.44 1.26-1.06 1.56-1.86v-1.86H28.9c-2.16 0-3.24.71-3.24 2.13 0 .68.27 1.22.81 1.62.54.4 1.29.6 2.25.6zM44.903 8.32c1.08-1.68 2.98-2.52 5.7-2.52v3.57a4.76 4.76 0 00-.87-.09c-1.46 0-2.6.43-3.42 1.29-.82.84-1.23 2.06-1.23 3.66V22h-3.75V5.98h3.57v2.34zm24.635-2.34v13.59c0 5.64-2.88 8.46-8.64 8.46-1.54 0-3-.2-4.38-.6-1.38-.38-2.52-.94-3.42-1.68l1.68-2.82c.7.58 1.58 1.04 2.64 1.38 1.08.36 2.17.54 3.27.54 1.76 0 3.05-.4 3.87-1.2.82-.8 1.23-2.02 1.23-3.66v-.84c-.64.7-1.42 1.23-2.34 1.59-.92.36-1.93.54-3.03.54-1.52 0-2.9-.32-4.14-.96a7.568 7.568 0 01-2.91-2.76c-.7-1.18-1.05-2.53-1.05-4.05s.35-2.86 1.05-4.02a7.35 7.35 0 012.91-2.73c1.24-.64 2.62-.96 4.14-.96 1.16 0 2.21.19 3.15.57.96.38 1.76.96 2.4 1.74V5.98h3.57zm-8.55 12.12c1.42 0 2.58-.42 3.48-1.26.92-.86 1.38-1.97 1.38-3.33 0-1.34-.46-2.43-1.38-3.27-.9-.84-2.06-1.26-3.48-1.26-1.44 0-2.62.42-3.54 1.26-.9.84-1.35 1.93-1.35 3.27 0 1.36.45 2.47 1.35 3.33.92.84 2.1 1.26 3.54 1.26zm20.68 4.11c-1.62 0-3.08-.35-4.38-1.05-1.3-.7-2.32-1.67-3.06-2.91-.72-1.26-1.08-2.68-1.08-4.26 0-1.58.36-2.99 1.08-4.23a7.793 7.793 0 013.06-2.91c1.3-.7 2.76-1.05 4.38-1.05 1.64 0 3.11.35 4.41 1.05 1.3.7 2.31 1.67 3.03 2.91.74 1.24 1.11 2.65 1.11 4.23 0 1.58-.37 3-1.11 4.26-.72 1.24-1.73 2.21-3.03 2.91-1.3.7-2.77 1.05-4.41 1.05zm0-3.21c1.38 0 2.52-.46 3.42-1.38.9-.92 1.35-2.13 1.35-3.63s-.45-2.71-1.35-3.63c-.9-.92-2.04-1.38-3.42-1.38s-2.52.46-3.42 1.38c-.88.92-1.32 2.13-1.32 3.63s.44 2.71 1.32 3.63c.9.92 2.04 1.38 3.42 1.38z" fill="#333"/></svg><svg id="dollar" filename="dollar.svg" viewBox="0 0 50 50" width="50pt" height="50pt"><path d="M25.738 33.793v-.195a41.456 41.456 0 01-2.867-.141 13.12 13.12 0 01-2.078 3.559c1.656.273 3.332.422 5.012.445zm0 0M21.355 26.629a10.866 10.866 0 00-7.378-8.129 10.855 10.855 0 00-10.453 2.328c-4.407 4.004-4.72 10.832-.715 15.238 4.004 4.403 10.832 4.715 15.234.711a10.7 10.7 0 003.527-7.972c0-.727-.074-1.461-.215-2.176zm-10.574.726a4.092 4.092 0 013.942 2.973 4.088 4.088 0 01-2.836 5.043v.953c0 .594-.489 1.082-1.082 1.082a1.087 1.087 0 01-1.082-1.082v-.941a4.113 4.113 0 01-3.032-3.95c0-.593.489-1.081 1.082-1.081.598 0 1.082.488 1.082 1.082a1.922 1.922 0 003.844-.012 1.922 1.922 0 00-1.926-1.914 4.08 4.08 0 01-3.941-3.031 4.112 4.112 0 012.902-5v-.465c0-.594.485-1.082 1.082-1.082.594 0 1.082.488 1.082 1.082v.488a4.091 4.091 0 012.977 3.938 1.082 1.082 0 11-2.164 0 1.933 1.933 0 00-1.93-1.926 1.932 1.932 0 00-1.926 1.925c0 1.063.868 1.918 1.926 1.918zm0 0M25.707 31.422l-.066-3.832a34.637 34.637 0 01-1.957-.074c.03.433.054.855.054 1.277 0 .844-.09 1.7-.25 2.531.715.067 1.461.098 2.219.098zm0 0M37.555 13.512a12.87 12.87 0 01-2.348.941c-2.434.738-5.629 1.137-8.96 1.137-3.192 0-6.231-.367-8.583-1.047-.809-.219-1.59-.52-2.336-.898l.074 3.05a12.412 12.412 0 013.387 1.914c.035.012.055.012.09.024 2.078.527 4.695.808 7.367.808 3.098 0 6.137-.386 8.332-1.046 2.348-.715 2.867-1.461 2.867-1.602 0-.152-.008-.293.11-.445zm0 0M34.57 9.219c-2.199-.672-5.238-1.051-8.336-1.051-3.113 0-6.035.379-8.222 1.05-2.282.692-2.782 1.372-2.793 1.59 0 0 .011 0 .011.02.055.238.704.977 3.032 1.645 2.152.629 4.988.976 7.972.976 3.098 0 6.125-.379 8.325-1.039 2.347-.703 2.879-1.45 2.879-1.601 0-.141-.52-.88-2.868-1.59zm0 0M49.977 39.16v-3.246c-.723.367-1.48.68-2.27.918-2.426.738-5.598 1.137-8.941 1.137-2.965 0-5.852-.336-8.125-.93a14.191 14.191 0 01-2.696-.984L28 39.19v.024c0 .16.477.887 2.758 1.59 2.164.66 5.086 1.027 8.215 1.027 3.117 0 6.05-.379 8.234-1.059 2.285-.714 2.781-1.46 2.781-1.613zm0 0M37.535 19.55a13.77 13.77 0 01-2.34.93c-2.433.739-5.625 1.137-8.968 1.137a38.69 38.69 0 01-4.903-.312 12.913 12.913 0 011.938 4.023c.93.067 1.937.11 2.972.11h.11c1.773-1.946 6.547-2.922 11.191-3.051zm0 0M47.629 30.848c-2.41.715-5.55 1.105-8.84 1.105-3.191 0-6.234-.367-8.582-1.05a13.204 13.204 0 01-2.36-.91l.044 2.491.011.907c.844 1.05 4.88 2.402 10.875 2.402 3.13 0 6.082-.367 8.301-1.04 2.336-.71 2.848-1.448 2.848-1.6 0-.118.062-.247.062-.356H50V29.93a12.21 12.21 0 01-2.371.918zm0 0M47.121 25.602c-2.207-.672-5.238-1.028-8.332-1.028h-.184c-2.878 0-5.617.324-7.714.918-2.243.63-3.008 1.344-3.106 1.633-.012.023-.012.035-.012.043l.02.047c.066.226.703.96 3.031 1.644 2.153.618 4.988.961 7.977.961 3.082 0 6.004-.355 8.222-1.015 2.403-.715 2.946-1.461 2.954-1.625v-.012c-.008-.16-.551-.875-2.856-1.566zm0 0"/></svg><svg id="gift" filename="gift.svg" viewBox="0 0 50 50" width="50pt" height="50pt"><path d="M3.125 26.531v18.75a3.127 3.127 0 003.125 3.125h15.625V26.531zm0 0M46.875 14.031h-9.887c.707-.484 1.317-.965 1.742-1.394 2.524-2.535 2.524-6.66 0-9.196-2.449-2.468-6.718-2.46-9.164 0-1.355 1.36-4.949 6.895-4.453 10.59h-.226c.496-3.695-3.098-9.23-4.453-10.59-2.45-2.46-6.72-2.46-9.164 0-2.52 2.536-2.52 6.66-.004 9.196.43.43 1.039.91 1.746 1.394H3.125A3.132 3.132 0 000 17.156v4.688c0 .863.7 1.562 1.563 1.562h20.312v-6.25h6.25v6.25h20.313c.863 0 1.562-.699 1.562-1.562v-4.688a3.13 3.13 0 00-3.125-3.125zm-25.184-.101s-.132.101-.578.101c-2.16 0-6.281-2.242-7.629-3.597a3.412 3.412 0 010-4.79 3.322 3.322 0 012.368-.988c.89 0 1.734.352 2.367.989 2.105 2.12 4.199 7.53 3.472 8.285zm7.192.101c-.442 0-.574-.097-.574-.101-.727-.754 1.367-6.164 3.472-8.285 1.258-1.27 3.461-1.278 4.735 0a3.405 3.405 0 010 4.789c-1.348 1.355-5.47 3.597-7.633 3.597zm0 0M28.125 26.531v21.875H43.75a3.124 3.124 0 003.125-3.125v-18.75zm0 0"/></svg><svg id="truck" filename="truck.svg" viewBox="0 0 50 50" width="50pt" height="50pt"><path d="M1.754 30.844V9.57c0-1.183.957-2.14 2.14-2.14h21.262c1.184 0 2.14.957 2.14 2.14v21.274c0 .394-.32.715-.71.715H2.469a.715.715 0 01-.715-.715zm17.172 7.289a4.44 4.44 0 11-8.88-.006 4.44 4.44 0 018.88.006zm-2.223 0a2.22 2.22 0 00-2.219-2.223 2.22 2.22 0 000 4.442 2.22 2.22 0 002.22-2.22zM10.66 33.69H.715a.715.715 0 00-.715.715v2.164c0 .395.32.711.715.711h7.973a5.864 5.864 0 011.972-3.59zm31.492 4.442a4.44 4.44 0 11-8.88-.006 4.44 4.44 0 018.88.006zm-2.218 0a2.224 2.224 0 00-2.223-2.223 2.223 2.223 0 00-2.219 2.223c0 1.222.996 2.219 2.219 2.219a2.223 2.223 0 002.223-2.22zM50 34.406v2.164c0 .395-.32.711-.715.711h-5.773c-.414-2.832-2.852-5.015-5.801-5.015-2.945 0-5.383 2.183-5.797 5.015H20.281a5.845 5.845 0 00-1.972-3.59h11.027V13.285c0-.789.64-1.43 1.43-1.43H37.5c1.898 0 3.668.946 4.73 2.516l4.344 6.43c.637.945.977 2.058.977 3.195v9.695h1.734c.395 0 .715.32.715.715zM42.762 20.97l-3.473-4.938a.716.716 0 00-.582-.3h-5.418c-.394 0-.71.32-.71.714v4.934c0 .394.316.71.71.71h8.89a.71.71 0 00.583-1.12zm0 0"/></svg></defs></svg>