<svg width="91" height="29" viewBox="0 0 91 29" fill="none" xmlns="http://www.w3.org/2000/svg">
<path d="M11.54 22.3C9.42 22.3 7.5 21.84 5.78 20.92C4.08 19.98 2.74 18.69 1.76 17.05C0.8 15.41 0.32 13.56 0.32 11.5C0.32 9.44 0.81 7.59 1.79 5.95C2.77 4.31 4.11 3.03 5.81 2.11C7.53 1.17 9.45 0.699999 11.57 0.699999C13.29 0.699999 14.86 0.999999 16.28 1.6C17.7 2.2 18.9 3.07 19.88 4.21L17.36 6.58C15.84 4.94 13.97 4.12 11.75 4.12C10.31 4.12 9.02 4.44 7.88 5.08C6.74 5.7 5.85 6.57 5.21 7.69C4.57 8.81 4.25 10.08 4.25 11.5C4.25 12.92 4.57 14.19 5.21 15.31C5.85 16.43 6.74 17.31 7.88 17.95C9.02 18.57 10.31 18.88 11.75 18.88C13.97 18.88 15.84 18.05 17.36 16.39L19.88 18.79C18.9 19.93 17.69 20.8 16.25 21.4C14.83 22 13.26 22.3 11.54 22.3ZM29.2304 5.8C31.5904 5.8 33.3904 6.37 34.6304 7.51C35.8904 8.63 36.5204 10.33 36.5204 12.61V22H32.9804V20.05C32.5204 20.75 31.8604 21.29 31.0004 21.67C30.1604 22.03 29.1404 22.21 27.9404 22.21C26.7404 22.21 25.6904 22.01 24.7904 21.61C23.8904 21.19 23.1904 20.62 22.6904 19.9C22.2104 19.16 21.9704 18.33 21.9704 17.41C21.9704 15.97 22.5004 14.82 23.5604 13.96C24.6404 13.08 26.3304 12.64 28.6304 12.64H32.7704V12.4C32.7704 11.28 32.4304 10.42 31.7504 9.82C31.0904 9.22 30.1004 8.92 28.7804 8.92C27.8804 8.92 26.9904 9.06 26.1104 9.34C25.2504 9.62 24.5204 10.01 23.9204 10.51L22.4504 7.78C23.2904 7.14 24.3004 6.65 25.4804 6.31C26.6604 5.97 27.9104 5.8 29.2304 5.8ZM28.7204 19.48C29.6604 19.48 30.4904 19.27 31.2104 18.85C31.9504 18.41 32.4704 17.79 32.7704 16.99V15.13H28.9004C26.7404 15.13 25.6604 15.84 25.6604 17.26C25.6604 17.94 25.9304 18.48 26.4704 18.88C27.0104 19.28 27.7604 19.48 28.7204 19.48ZM44.903 8.32C45.983 6.64 47.883 5.8 50.603 5.8V9.37C50.283 9.31 49.993 9.28 49.733 9.28C48.273 9.28 47.133 9.71 46.313 10.57C45.493 11.41 45.083 12.63 45.083 14.23V22H41.333V5.98H44.903V8.32ZM69.5377 5.98V19.57C69.5377 25.21 66.6577 28.03 60.8977 28.03C59.3577 28.03 57.8977 27.83 56.5177 27.43C55.1377 27.05 53.9977 26.49 53.0977 25.75L54.7777 22.93C55.4777 23.51 56.3577 23.97 57.4177 24.31C58.4977 24.67 59.5877 24.85 60.6877 24.85C62.4477 24.85 63.7377 24.45 64.5577 23.65C65.3777 22.85 65.7877 21.63 65.7877 19.99V19.15C65.1477 19.85 64.3677 20.38 63.4477 20.74C62.5277 21.1 61.5177 21.28 60.4177 21.28C58.8977 21.28 57.5177 20.96 56.2777 20.32C55.0577 19.66 54.0877 18.74 53.3677 17.56C52.6677 16.38 52.3177 15.03 52.3177 13.51C52.3177 11.99 52.6677 10.65 53.3677 9.49C54.0877 8.31 55.0577 7.4 56.2777 6.76C57.5177 6.12 58.8977 5.8 60.4177 5.8C61.5777 5.8 62.6277 5.99 63.5677 6.37C64.5277 6.75 65.3277 7.33 65.9677 8.11V5.98H69.5377ZM60.9877 18.1C62.4077 18.1 63.5677 17.68 64.4677 16.84C65.3877 15.98 65.8477 14.87 65.8477 13.51C65.8477 12.17 65.3877 11.08 64.4677 10.24C63.5677 9.4 62.4077 8.98 60.9877 8.98C59.5477 8.98 58.3677 9.4 57.4477 10.24C56.5477 11.08 56.0977 12.17 56.0977 13.51C56.0977 14.87 56.5477 15.98 57.4477 16.84C58.3677 17.68 59.5477 18.1 60.9877 18.1ZM81.6678 22.21C80.0478 22.21 78.5878 21.86 77.2878 21.16C75.9878 20.46 74.9678 19.49 74.2278 18.25C73.5078 16.99 73.1478 15.57 73.1478 13.99C73.1478 12.41 73.5078 11 74.2278 9.76C74.9678 8.52 75.9878 7.55 77.2878 6.85C78.5878 6.15 80.0478 5.8 81.6678 5.8C83.3078 5.8 84.7778 6.15 86.0778 6.85C87.3778 7.55 88.3878 8.52 89.1078 9.76C89.8478 11 90.2178 12.41 90.2178 13.99C90.2178 15.57 89.8478 16.99 89.1078 18.25C88.3878 19.49 87.3778 20.46 86.0778 21.16C84.7778 21.86 83.3078 22.21 81.6678 22.21ZM81.6678 19C83.0478 19 84.1878 18.54 85.0878 17.62C85.9878 16.7 86.4378 15.49 86.4378 13.99C86.4378 12.49 85.9878 11.28 85.0878 10.36C84.1878 9.44 83.0478 8.98 81.6678 8.98C80.2878 8.98 79.1478 9.44 78.2478 10.36C77.3678 11.28 76.9278 12.49 76.9278 13.99C76.9278 15.49 77.3678 16.7 78.2478 17.62C79.1478 18.54 80.2878 19 81.6678 19Z" fill="#333333"/>
</svg>
