<?xml version="1.0" encoding="UTF-8"?>
<svg xmlns="http://www.w3.org/2000/svg" xmlns:xlink="http://www.w3.org/1999/xlink" width="50pt" height="50pt" viewBox="0 0 50 50" version="1.1">
<g id="surface1">
<path style=" stroke:none;fill-rule:nonzero;fill:rgb(0%,0%,0%);fill-opacity:1;" d="M 25.738281 33.792969 L 25.738281 33.597656 C 24.742188 33.585938 23.789062 33.53125 22.871094 33.457031 C 22.371094 34.746094 21.667969 35.945312 20.792969 37.015625 C 22.449219 37.289062 24.125 37.4375 25.804688 37.460938 Z M 25.738281 33.792969 "/>
<path style=" stroke:none;fill-rule:nonzero;fill:rgb(0%,0%,0%);fill-opacity:1;" d="M 21.355469 26.628906 C 20.554688 22.796875 17.730469 19.679688 13.976562 18.5 C 12.9375 18.1875 11.867188 18.027344 10.78125 18.027344 C 8.097656 18.035156 5.503906 19.03125 3.523438 20.828125 C -0.882812 24.832031 -1.195312 31.660156 2.808594 36.066406 C 6.8125 40.46875 13.640625 40.78125 18.042969 36.777344 C 20.296875 34.734375 21.582031 31.84375 21.570312 28.804688 C 21.570312 28.078125 21.496094 27.34375 21.355469 26.628906 Z M 10.78125 27.355469 C 12.613281 27.355469 14.222656 28.566406 14.722656 30.328125 C 15.328125 32.503906 14.074219 34.753906 11.886719 35.371094 L 11.886719 36.324219 C 11.886719 36.917969 11.398438 37.40625 10.804688 37.40625 C 10.210938 37.40625 9.722656 36.917969 9.722656 36.324219 L 9.722656 35.382812 C 7.9375 34.894531 6.703125 33.285156 6.691406 31.433594 C 6.691406 30.839844 7.179688 30.351562 7.773438 30.351562 C 8.371094 30.351562 8.855469 30.839844 8.855469 31.433594 C 8.855469 32.492188 9.722656 33.347656 10.78125 33.347656 C 11.84375 33.347656 12.699219 32.484375 12.699219 31.421875 C 12.699219 30.363281 11.832031 29.507812 10.773438 29.507812 C 8.921875 29.507812 7.308594 28.261719 6.832031 26.476562 C 6.261719 24.3125 7.558594 22.0625 9.734375 21.476562 L 9.734375 21.011719 C 9.734375 20.417969 10.21875 19.929688 10.816406 19.929688 C 11.410156 19.929688 11.898438 20.417969 11.898438 21.011719 L 11.898438 21.5 C 13.660156 21.996094 14.875 23.609375 14.875 25.4375 C 14.875 26.035156 14.386719 26.519531 13.792969 26.519531 C 13.195312 26.519531 12.710938 26.035156 12.710938 25.4375 C 12.710938 24.378906 11.84375 23.511719 10.78125 23.511719 C 9.722656 23.511719 8.867188 24.367188 8.855469 25.4375 C 8.855469 26.5 9.722656 27.355469 10.78125 27.355469 Z M 10.78125 27.355469 "/>
<path style=" stroke:none;fill-rule:nonzero;fill:rgb(0%,0%,0%);fill-opacity:1;" d="M 25.707031 31.421875 L 25.640625 27.589844 C 24.96875 27.582031 24.308594 27.558594 23.683594 27.515625 C 23.714844 27.949219 23.738281 28.371094 23.738281 28.792969 C 23.738281 29.636719 23.648438 30.492188 23.488281 31.324219 C 24.203125 31.390625 24.949219 31.421875 25.707031 31.421875 Z M 25.707031 31.421875 "/>
<path style=" stroke:none;fill-rule:nonzero;fill:rgb(0%,0%,0%);fill-opacity:1;" d="M 37.554688 13.511719 C 36.808594 13.902344 36.019531 14.214844 35.207031 14.453125 C 32.773438 15.191406 29.578125 15.589844 26.246094 15.589844 C 23.054688 15.589844 20.015625 15.222656 17.664062 14.542969 C 16.855469 14.324219 16.074219 14.023438 15.328125 13.644531 L 15.402344 16.695312 C 16.625 17.148438 17.761719 17.796875 18.789062 18.609375 C 18.824219 18.621094 18.84375 18.621094 18.878906 18.632812 C 20.957031 19.160156 23.574219 19.441406 26.246094 19.441406 C 29.34375 19.441406 32.382812 19.054688 34.578125 18.394531 C 36.925781 17.679688 37.445312 16.933594 37.445312 16.792969 C 37.445312 16.640625 37.4375 16.5 37.554688 16.347656 Z M 37.554688 13.511719 "/>
<path style=" stroke:none;fill-rule:nonzero;fill:rgb(0%,0%,0%);fill-opacity:1;" d="M 34.570312 9.21875 C 32.371094 8.546875 29.332031 8.167969 26.234375 8.167969 C 23.121094 8.167969 20.199219 8.546875 18.011719 9.21875 C 15.730469 9.910156 15.230469 10.589844 15.21875 10.808594 C 15.21875 10.808594 15.230469 10.808594 15.230469 10.828125 C 15.285156 11.066406 15.933594 11.804688 18.261719 12.472656 C 20.414062 13.101562 23.25 13.449219 26.234375 13.449219 C 29.332031 13.449219 32.359375 13.070312 34.558594 12.410156 C 36.90625 11.707031 37.4375 10.960938 37.4375 10.808594 C 37.4375 10.667969 36.917969 9.929688 34.570312 9.21875 Z M 34.570312 9.21875 "/>
<path style=" stroke:none;fill-rule:nonzero;fill:rgb(0%,0%,0%);fill-opacity:1;" d="M 49.976562 39.160156 L 49.976562 35.914062 C 49.253906 36.28125 48.496094 36.59375 47.707031 36.832031 C 45.28125 37.570312 42.109375 37.96875 38.765625 37.96875 C 35.800781 37.96875 32.914062 37.632812 30.640625 37.039062 C 29.710938 36.800781 28.8125 36.476562 27.945312 36.054688 L 28 39.191406 C 28 39.203125 28 39.203125 28 39.214844 C 28 39.375 28.476562 40.101562 30.757812 40.804688 C 32.921875 41.464844 35.84375 41.832031 38.972656 41.832031 C 42.089844 41.832031 45.023438 41.453125 47.207031 40.773438 C 49.492188 40.058594 49.988281 39.3125 49.988281 39.160156 Z M 49.976562 39.160156 "/>
<path style=" stroke:none;fill-rule:nonzero;fill:rgb(0%,0%,0%);fill-opacity:1;" d="M 37.535156 19.550781 C 36.785156 19.929688 36.007812 20.242188 35.195312 20.480469 C 32.761719 21.21875 29.570312 21.617188 26.226562 21.617188 C 24.582031 21.617188 22.945312 21.511719 21.324219 21.304688 C 22.199219 22.515625 22.847656 23.878906 23.261719 25.328125 C 24.191406 25.394531 25.199219 25.4375 26.234375 25.4375 C 26.269531 25.4375 26.3125 25.4375 26.34375 25.4375 C 28.117188 23.492188 32.890625 22.515625 37.535156 22.386719 Z M 37.535156 19.550781 "/>
<path style=" stroke:none;fill-rule:nonzero;fill:rgb(0%,0%,0%);fill-opacity:1;" d="M 47.628906 30.847656 C 45.21875 31.5625 42.078125 31.953125 38.789062 31.953125 C 35.597656 31.953125 32.554688 31.585938 30.207031 30.902344 C 29.394531 30.675781 28.605469 30.371094 27.847656 29.992188 L 27.890625 32.484375 L 27.902344 33.390625 C 28.746094 34.441406 32.78125 35.792969 38.777344 35.792969 C 41.90625 35.792969 44.859375 35.425781 47.078125 34.753906 C 49.414062 34.042969 49.925781 33.304688 49.925781 33.152344 C 49.925781 33.035156 49.988281 32.90625 49.988281 32.796875 L 50 32.796875 L 50 29.929688 C 49.242188 30.308594 48.453125 30.632812 47.628906 30.847656 Z M 47.628906 30.847656 "/>
<path style=" stroke:none;fill-rule:nonzero;fill:rgb(0%,0%,0%);fill-opacity:1;" d="M 47.121094 25.601562 C 44.914062 24.929688 41.882812 24.574219 38.789062 24.574219 L 38.605469 24.574219 C 35.726562 24.574219 32.988281 24.898438 30.890625 25.492188 C 28.648438 26.121094 27.882812 26.835938 27.785156 27.125 C 27.773438 27.148438 27.773438 27.160156 27.773438 27.167969 C 27.773438 27.167969 27.773438 27.167969 27.792969 27.214844 C 27.859375 27.441406 28.496094 28.175781 30.824219 28.859375 C 32.976562 29.476562 35.8125 29.820312 38.800781 29.820312 C 41.882812 29.820312 44.804688 29.464844 47.023438 28.804688 C 49.425781 28.089844 49.96875 27.34375 49.976562 27.179688 L 49.976562 27.167969 C 49.96875 27.007812 49.425781 26.292969 47.121094 25.601562 Z M 47.121094 25.601562 "/>
</g>
</svg>
