<?xml version="1.0" encoding="UTF-8"?>
<svg xmlns="http://www.w3.org/2000/svg" xmlns:xlink="http://www.w3.org/1999/xlink" width="50pt" height="50pt" viewBox="0 0 50 50" version="1.1">
<g id="surface1">
<path style=" stroke:none;fill-rule:nonzero;fill:rgb(0%,0%,0%);fill-opacity:1;" d="M 3.125 26.53125 L 3.125 45.28125 C 3.125 47.007812 4.527344 48.40625 6.25 48.40625 L 21.875 48.40625 L 21.875 26.53125 Z M 3.125 26.53125 "/>
<path style=" stroke:none;fill-rule:nonzero;fill:rgb(0%,0%,0%);fill-opacity:1;" d="M 46.875 14.03125 L 36.988281 14.03125 C 37.695312 13.546875 38.304688 13.066406 38.730469 12.636719 C 41.253906 10.101562 41.253906 5.976562 38.730469 3.441406 C 36.28125 0.972656 32.011719 0.980469 29.566406 3.441406 C 28.210938 4.800781 24.617188 10.335938 25.113281 14.03125 L 24.886719 14.03125 C 25.382812 10.335938 21.789062 4.800781 20.433594 3.441406 C 17.984375 0.980469 13.714844 0.980469 11.269531 3.441406 C 8.75 5.976562 8.75 10.101562 11.265625 12.636719 C 11.695312 13.066406 12.304688 13.546875 13.011719 14.03125 L 3.125 14.03125 C 1.402344 14.03125 0 15.4375 0 17.15625 L 0 21.84375 C 0 22.707031 0.699219 23.40625 1.5625 23.40625 L 21.875 23.40625 L 21.875 17.15625 L 28.125 17.15625 L 28.125 23.40625 L 48.4375 23.40625 C 49.300781 23.40625 50 22.707031 50 21.84375 L 50 17.15625 C 50 15.4375 48.601562 14.03125 46.875 14.03125 Z M 21.691406 13.929688 C 21.691406 13.929688 21.558594 14.03125 21.113281 14.03125 C 18.953125 14.03125 14.832031 11.789062 13.484375 10.433594 C 12.175781 9.113281 12.175781 6.964844 13.484375 5.644531 C 14.117188 5.007812 14.960938 4.65625 15.851562 4.65625 C 16.742188 4.65625 17.585938 5.007812 18.21875 5.644531 C 20.324219 7.765625 22.417969 13.175781 21.691406 13.929688 Z M 28.882812 14.03125 C 28.441406 14.03125 28.308594 13.933594 28.308594 13.929688 C 27.582031 13.175781 29.675781 7.765625 31.78125 5.644531 C 33.039062 4.375 35.242188 4.367188 36.515625 5.644531 C 37.828125 6.964844 37.828125 9.113281 36.515625 10.433594 C 35.167969 11.789062 31.046875 14.03125 28.882812 14.03125 Z M 28.882812 14.03125 "/>
<path style=" stroke:none;fill-rule:nonzero;fill:rgb(0%,0%,0%);fill-opacity:1;" d="M 28.125 26.53125 L 28.125 48.40625 L 43.75 48.40625 C 45.476562 48.40625 46.875 47.007812 46.875 45.28125 L 46.875 26.53125 Z M 28.125 26.53125 "/>
</g>
</svg>
