<?xml version="1.0" encoding="UTF-8"?>
<svg xmlns="http://www.w3.org/2000/svg" xmlns:xlink="http://www.w3.org/1999/xlink" width="30pt" height="30pt" viewBox="0 0 30 30" version="1.1">
<g id="surface1">
<path style=" stroke:none;fill-rule:nonzero;fill:rgb(0%,0%,0%);fill-opacity:1;" d="M 28.21875 2.496094 L 10.402344 2.496094 C 9.421875 2.496094 8.621094 3.296875 8.621094 4.277344 L 8.621094 6.859375 C 8.621094 7.84375 9.421875 8.640625 10.402344 8.640625 L 28.21875 8.640625 C 29.199219 8.640625 30 7.84375 30 6.859375 L 30 4.277344 C 30 3.296875 29.199219 2.496094 28.21875 2.496094 Z M 28.21875 2.496094 "/>
<path style=" stroke:none;fill-rule:nonzero;fill:rgb(0%,0%,0%);fill-opacity:1;" d="M 28.21875 11.929688 L 10.402344 11.929688 C 9.421875 11.929688 8.621094 12.726562 8.621094 13.710938 L 8.621094 16.289062 C 8.621094 17.273438 9.421875 18.070312 10.402344 18.070312 L 28.21875 18.070312 C 29.199219 18.070312 30 17.273438 30 16.289062 L 30 13.710938 C 30 12.726562 29.199219 11.929688 28.21875 11.929688 Z M 28.21875 11.929688 "/>
<path style=" stroke:none;fill-rule:nonzero;fill:rgb(0%,0%,0%);fill-opacity:1;" d="M 28.21875 21.359375 L 10.402344 21.359375 C 9.421875 21.359375 8.621094 22.15625 8.621094 23.140625 L 8.621094 25.722656 C 8.621094 26.703125 9.421875 27.503906 10.402344 27.503906 L 28.21875 27.503906 C 29.199219 27.503906 30 26.703125 30 25.722656 L 30 23.140625 C 30 22.15625 29.199219 21.359375 28.21875 21.359375 Z M 28.21875 21.359375 "/>
<path style=" stroke:none;fill-rule:nonzero;fill:rgb(0%,0%,0%);fill-opacity:1;" d="M 4.644531 2.496094 L 1.78125 2.496094 C 0.800781 2.496094 0 3.296875 0 4.277344 L 0 6.859375 C 0 7.84375 0.800781 8.640625 1.78125 8.640625 L 4.644531 8.640625 C 5.625 8.640625 6.425781 7.84375 6.425781 6.859375 L 6.425781 4.277344 C 6.425781 3.296875 5.625 2.496094 4.644531 2.496094 Z M 4.644531 2.496094 "/>
<path style=" stroke:none;fill-rule:nonzero;fill:rgb(0%,0%,0%);fill-opacity:1;" d="M 4.644531 11.929688 L 1.78125 11.929688 C 0.800781 11.929688 0 12.726562 0 13.710938 L 0 16.289062 C 0 17.273438 0.800781 18.070312 1.78125 18.070312 L 4.644531 18.070312 C 5.625 18.070312 6.425781 17.273438 6.425781 16.289062 L 6.425781 13.710938 C 6.425781 12.726562 5.625 11.929688 4.644531 11.929688 Z M 4.644531 11.929688 "/>
<path style=" stroke:none;fill-rule:nonzero;fill:rgb(0%,0%,0%);fill-opacity:1;" d="M 4.644531 21.359375 L 1.78125 21.359375 C 0.800781 21.359375 0 22.15625 0 23.140625 L 0 25.722656 C 0 26.703125 0.800781 27.503906 1.78125 27.503906 L 4.644531 27.503906 C 5.625 27.503906 6.425781 26.703125 6.425781 25.722656 L 6.425781 23.140625 C 6.425781 22.15625 5.625 21.359375 4.644531 21.359375 Z M 4.644531 21.359375 "/>
</g>
</svg>
