<?xml version="1.0" encoding="UTF-8"?>
<svg xmlns="http://www.w3.org/2000/svg" xmlns:xlink="http://www.w3.org/1999/xlink" width="50pt" height="50pt" viewBox="0 0 50 50" version="1.1">
<g id="surface1">
<path style=" stroke:none;fill-rule:nonzero;fill:rgb(0%,0%,0%);fill-opacity:1;" d="M 20.703125 29.296875 C 15.933594 24.523438 14.855469 19.75 14.609375 17.839844 C 14.542969 17.308594 14.726562 16.78125 15.101562 16.40625 L 18.964844 12.542969 C 19.535156 11.976562 19.632812 11.089844 19.207031 10.410156 L 13.058594 0.863281 C 12.589844 0.109375 11.621094 -0.164062 10.824219 0.234375 L 0.953125 4.882812 C 0.3125 5.199219 -0.0664062 5.882812 0.0078125 6.59375 C 0.523438 11.507812 2.664062 23.589844 14.535156 35.460938 C 26.40625 47.332031 38.484375 49.472656 43.402344 49.992188 C 44.113281 50.0625 44.796875 49.683594 45.113281 49.042969 L 49.761719 39.171875 C 50.160156 38.378906 49.890625 37.414062 49.136719 36.941406 L 39.589844 30.792969 C 38.910156 30.367188 38.023438 30.46875 37.457031 31.035156 L 33.59375 34.898438 C 33.21875 35.273438 32.691406 35.457031 32.160156 35.390625 C 30.25 35.144531 25.476562 34.066406 20.703125 29.296875 Z M 20.703125 29.296875 "/>
<path style=" stroke:none;fill-rule:nonzero;fill:rgb(0%,0%,0%);fill-opacity:1;" d="M 39.65625 26.722656 C 38.703125 26.722656 37.929688 25.953125 37.929688 25 C 37.921875 17.863281 32.136719 12.078125 25 12.070312 C 24.046875 12.070312 23.277344 11.296875 23.277344 10.34375 C 23.277344 9.394531 24.046875 8.621094 25 8.621094 C 34.042969 8.628906 41.371094 15.957031 41.378906 25 C 41.378906 25.953125 40.605469 26.722656 39.65625 26.722656 Z M 39.65625 26.722656 "/>
<path style=" stroke:none;fill-rule:nonzero;fill:rgb(0%,0%,0%);fill-opacity:1;" d="M 48.277344 26.722656 C 47.324219 26.722656 46.550781 25.953125 46.550781 25 C 46.539062 13.101562 36.898438 3.460938 25 3.449219 C 24.046875 3.449219 23.277344 2.675781 23.277344 1.722656 C 23.277344 0.773438 24.046875 0 25 0 C 38.800781 0.015625 49.984375 11.199219 50 25 C 50 25.457031 49.816406 25.894531 49.496094 26.21875 C 49.171875 26.542969 48.734375 26.722656 48.277344 26.722656 Z M 48.277344 26.722656 "/>
</g>
</svg>
