<?xml version="1.0" encoding="UTF-8"?>
<svg xmlns="http://www.w3.org/2000/svg" xmlns:xlink="http://www.w3.org/1999/xlink" width="50pt" height="50pt" viewBox="0 0 50 50" version="1.1">
<g id="surface1">
<path style=" stroke:none;fill-rule:nonzero;fill:rgb(0%,0%,0%);fill-opacity:1;" d="M 1.753906 30.84375 L 1.753906 9.570312 C 1.753906 8.386719 2.710938 7.429688 3.894531 7.429688 L 25.15625 7.429688 C 26.339844 7.429688 27.296875 8.386719 27.296875 9.570312 L 27.296875 30.84375 C 27.296875 31.238281 26.976562 31.558594 26.585938 31.558594 L 2.46875 31.558594 C 2.074219 31.558594 1.753906 31.238281 1.753906 30.84375 Z M 18.925781 38.132812 C 18.925781 40.582031 16.9375 42.570312 14.484375 42.570312 C 12.035156 42.570312 10.046875 40.582031 10.046875 38.132812 C 10.046875 35.679688 12.035156 33.691406 14.484375 33.691406 C 16.9375 33.691406 18.925781 35.679688 18.925781 38.132812 Z M 16.703125 38.132812 C 16.703125 36.90625 15.710938 35.910156 14.484375 35.910156 C 13.257812 35.910156 12.265625 36.90625 12.265625 38.132812 C 12.265625 39.355469 13.257812 40.351562 14.484375 40.351562 C 15.710938 40.351562 16.703125 39.355469 16.703125 38.132812 Z M 10.660156 33.691406 L 0.714844 33.691406 C 0.320312 33.691406 0 34.011719 0 34.40625 L 0 36.570312 C 0 36.964844 0.320312 37.28125 0.714844 37.28125 L 8.6875 37.28125 C 8.894531 35.855469 9.617188 34.59375 10.660156 33.691406 Z M 42.152344 38.132812 C 42.152344 40.582031 40.164062 42.570312 37.710938 42.570312 C 35.261719 42.570312 33.273438 40.582031 33.273438 38.132812 C 33.273438 35.679688 35.261719 33.691406 37.710938 33.691406 C 40.164062 33.691406 42.152344 35.679688 42.152344 38.132812 Z M 39.933594 38.132812 C 39.933594 36.90625 38.9375 35.910156 37.710938 35.910156 C 36.488281 35.910156 35.492188 36.90625 35.492188 38.132812 C 35.492188 39.355469 36.488281 40.351562 37.710938 40.351562 C 38.9375 40.351562 39.933594 39.355469 39.933594 38.132812 Z M 50 34.40625 L 50 36.570312 C 50 36.964844 49.679688 37.28125 49.285156 37.28125 L 43.511719 37.28125 C 43.097656 34.449219 40.660156 32.265625 37.710938 32.265625 C 34.765625 32.265625 32.328125 34.449219 31.914062 37.28125 L 20.28125 37.28125 C 20.074219 35.855469 19.355469 34.59375 18.308594 33.691406 L 29.335938 33.691406 L 29.335938 13.285156 C 29.335938 12.496094 29.976562 11.855469 30.765625 11.855469 L 37.5 11.855469 C 39.398438 11.855469 41.167969 12.800781 42.230469 14.371094 L 46.574219 20.800781 C 47.210938 21.746094 47.550781 22.859375 47.550781 23.996094 L 47.550781 33.691406 L 49.285156 33.691406 C 49.679688 33.691406 50 34.011719 50 34.40625 Z M 42.761719 20.96875 L 39.289062 16.03125 C 39.15625 15.84375 38.9375 15.730469 38.707031 15.730469 L 33.289062 15.730469 C 32.894531 15.730469 32.578125 16.050781 32.578125 16.445312 L 32.578125 21.378906 C 32.578125 21.773438 32.894531 22.089844 33.289062 22.089844 L 42.179688 22.089844 C 42.757812 22.089844 43.09375 21.441406 42.761719 20.96875 Z M 42.761719 20.96875 "/>
</g>
</svg>
